<?xml version="1.0" standalone="no"?>
<!DOCTYPE svg PUBLIC "-//W3C//DTD SVG 20010904//EN"
 "http://www.w3.org/TR/2001/REC-SVG-20010904/DTD/svg10.dtd">
<svg version="1.0" xmlns="http://www.w3.org/2000/svg"
 width="300.000000pt" height="84.000000pt" viewBox="0 0 300.000000 84.000000"
 preserveAspectRatio="xMidYMid meet">
<metadata>
Created by potrace 1.10, written by Peter Selinger 2001-2011
</metadata>
<g transform="translate(0.000000,84.000000) scale(0.100000,-0.100000)"
fill="#000000" stroke="none">
<path d="M912 808 c-1 -21 -5 -38 -9 -39 -5 0 -18 -2 -31 -3 -13 -2 -24 0 -26
3 -7 11 -846 1 -846 -9 0 -7 528 -10 1500 -10 993 0 1500 3 1500 10 0 7 -147
10 -420 10 l-420 0 0 35 c0 19 -5 35 -10 35 -6 0 -8 -13 -5 -30 5 -26 1 -32
-21 -40 -48 -19 -92 6 -73 42 13 24 11 31 -5 16 -8 -7 -12 -16 -9 -20 2 -5 -1
-8 -8 -8 -7 0 -5 -8 7 -21 19 -22 19 -22 -2 -11 -12 6 -24 9 -26 6 -3 -3 -105
-6 -226 -7 -121 -1 -215 2 -209 6 7 5 3 7 -10 4 -16 -3 -23 0 -23 9 0 10 -6 8
-20 -6 -23 -23 -36 -25 -43 -7 -4 10 -6 10 -6 0 -1 -7 -5 -13 -11 -13 -5 0
-11 19 -12 43 l-1 42 -4 -37 -4 -37 -199 -3 c-110 -2 -210 0 -222 4 -23 6 -23
6 2 8 l25 2 -25 8 -25 8 25 2 25 2 -25 8 -25 8 25 2 c23 1 23 2 5 10 -26 11
-36 12 -33 3 6 -21 -13 -73 -27 -73 -11 0 -15 12 -17 43 l-1 42 -4 -37 c-2
-21 -8 -38 -13 -38 -5 0 -11 17 -13 38 l-4 37 -1 -37z"/>
<path d="M1551 824 c0 -11 3 -14 6 -6 3 7 2 16 -1 19 -3 4 -6 -2 -5 -13z"/>
<path d="M2072 810 c0 -14 2 -19 5 -12 2 6 2 18 0 25 -3 6 -5 1 -5 -13z"/>
<path d="M783 706 c-23 -20 -25 -26 -14 -40 8 -9 12 -33 9 -61 -3 -39 -1 -43
9 -28 15 20 18 97 3 88 -17 -11 -11 15 9 36 11 12 24 18 30 15 5 -4 12 -2 16
4 12 20 -34 10 -62 -14z"/>
<path d="M904 723 c11 -11 46 -14 46 -3 0 6 -12 10 -27 10 -14 0 -23 -3 -19
-7z"/>
<path d="M963 711 c-10 -17 -9 -20 12 -25 37 -9 40 -8 41 14 1 11 -2 20 -7 20
-4 0 -13 2 -21 5 -7 3 -18 -3 -25 -14z m32 -11 c3 -5 2 -10 -4 -10 -5 0 -13 5
-16 10 -3 6 -2 10 4 10 5 0 13 -4 16 -10z"/>
<path d="M1368 704 c-10 -22 -10 -28 6 -40 14 -10 17 -21 13 -47 -3 -19 -1
-40 5 -48 8 -11 9 -11 4 3 -3 10 -1 20 4 23 6 4 10 -6 10 -22 l0 -28 85 3 85
3 -1 27 c-2 24 -2 24 -6 5 -4 -21 -10 -23 -73 -23 -40 0 -72 5 -76 11 -3 6 -6
33 -5 60 1 47 -1 49 -27 49 -25 1 -25 2 -9 14 19 14 23 36 7 36 -6 0 -16 -12
-22 -26z"/>
<path d="M1534 723 c4 -5 11 -8 14 -8 4 -1 17 -4 30 -9 25 -8 29 -21 8 -29
-15 -6 -11 -41 6 -64 5 -7 7 -17 3 -23 -4 -6 4 -6 20 2 l26 12 -23 19 c-18 15
-19 18 -4 13 16 -5 17 -4 7 8 -7 8 -10 24 -7 34 4 13 1 22 -9 26 -9 3 -13 10
-10 16 4 6 -9 10 -31 10 -21 0 -34 -3 -30 -7z"/>
<path d="M1703 723 c42 -2 112 -2 155 0 42 1 7 3 -78 3 -85 0 -120 -2 -77 -3z"/>
<path d="M1944 705 c-28 -31 -20 -38 21 -20 19 7 36 10 40 7 3 -4 3 1 -1 11
-5 14 -2 16 25 11 20 -4 31 -3 31 5 0 7 -19 11 -47 11 -38 0 -52 -5 -69 -25z
m46 1 c0 -2 -7 -7 -16 -10 -8 -3 -12 -2 -9 4 6 10 25 14 25 6z"/>
<path d="M2128 718 c17 -8 26 -8 34 0 9 9 4 12 -22 11 -33 0 -34 -1 -12 -11z"/>
<path d="M2220 720 c72 -12 780 -12 780 0 0 7 -135 10 -412 9 -227 -1 -393 -5
-368 -9z"/>
<path d="M2175 700 c-3 -5 1 -10 9 -10 9 0 16 -4 16 -10 0 -5 -45 -11 -102
-12 l-102 -3 -1 -35 c0 -19 -6 -45 -13 -57 -15 -28 -15 -53 0 -53 6 0 9 3 5 6
-3 4 3 24 13 45 11 21 20 50 20 64 0 25 1 25 80 25 44 0 80 -3 81 -7 8 -80 6
-103 -11 -103 -43 0 -78 14 -88 34 -12 28 -48 32 -48 5 0 -23 14 -25 23 -4 4
12 9 9 20 -12 8 -15 16 -34 17 -41 2 -11 55 -13 266 -12 252 1 263 0 248 -17
-8 -10 -22 -31 -30 -46 -8 -16 -37 -41 -64 -55 -48 -26 -49 -28 -52 -78 -2
-36 1 -54 12 -63 13 -11 15 -6 9 39 -5 47 -4 54 18 71 34 26 39 24 39 -21 l0
-40 69 0 c101 0 101 0 101 86 l0 74 -56 0 c-50 0 -55 2 -44 15 10 12 29 15 74
13 l61 -3 3 -33 c2 -19 12 -48 23 -65 23 -39 25 -95 3 -125 -13 -18 -25 -22
-74 -22 -32 0 -61 -4 -65 -9 -5 -9 71 -6 122 5 26 5 42 30 47 75 2 17 9 35 16
39 7 4 18 23 25 41 7 19 19 48 26 66 19 47 1 63 -70 61 l-56 -1 54 -6 c73 -8
82 -25 47 -85 -15 -25 -24 -51 -21 -56 3 -6 -3 -10 -14 -10 -12 0 -21 6 -21
14 0 7 -7 19 -14 26 -8 6 -16 30 -18 53 l-3 42 -60 8 c-33 5 -68 13 -79 19
-20 11 -223 12 -398 2 -64 -4 -108 -2 -108 3 0 5 21 9 47 9 l47 -1 -3 58 c-2
35 2 57 8 57 15 0 14 19 -3 36 -17 17 -23 17 -31 4z m455 -305 l0 -55 -40 0
c-23 0 -40 5 -40 11 0 7 9 9 21 6 28 -8 49 2 49 22 -1 14 -2 14 -11 -1 -5 -10
-15 -18 -20 -18 -6 0 -7 6 -2 13 4 6 6 21 4 31 -2 14 1 17 15 12 17 -6 17 -5
-1 14 -18 20 -18 20 3 20 20 0 22 -5 22 -55z m50 0 c0 -48 -2 -55 -20 -55 -18
0 -20 7 -20 55 0 48 2 55 20 55 18 0 20 -7 20 -55z m-102 -2 c-5 -25 -28 -28
-28 -4 0 12 6 21 16 21 9 0 14 -7 12 -17z"/>
<path d="M903 693 c9 -2 23 -2 30 0 6 3 -1 5 -18 5 -16 0 -22 -2 -12 -5z"/>
<path d="M1438 678 c-7 -4 15 -8 51 -8 35 0 62 2 60 5 -9 8 -99 11 -111 3z"/>
<path d="M838 663 c12 -2 32 -2 45 0 12 2 2 4 -23 4 -25 0 -35 -2 -22 -4z"/>
<path d="M922 652 c0 -9 -1 -28 -4 -42 -3 -14 -3 -19 -1 -12 3 6 8 12 13 12
10 0 1 -38 -11 -46 -5 -3 -9 -15 -9 -27 l0 -22 -365 2 c-200 1 -373 -1 -385
-4 -26 -7 -26 -33 1 -78 20 -33 22 -34 34 -18 11 15 9 21 -12 39 -25 22 -25
22 -5 33 11 6 30 11 41 11 17 0 21 -6 21 -34 0 -18 -7 -39 -15 -46 -8 -7 -15
-19 -15 -27 0 -8 -4 -12 -9 -8 -5 3 -12 1 -16 -5 -3 -5 2 -10 12 -10 24 0 46
35 52 85 l6 40 72 5 c62 4 73 3 83 -14 10 -15 14 -16 21 -5 5 10 3 16 -9 21
-9 4 18 7 61 7 50 1 76 -3 72 -9 -4 -6 4 -6 19 1 13 7 33 8 43 5 10 -4 74 -10
142 -12 100 -4 128 -2 147 11 13 8 38 16 56 16 l33 2 -37 6 -36 6 19 35 c11
19 18 27 15 18 -3 -11 0 -18 8 -18 20 0 15 32 -6 38 -14 3 -18 11 -14 27 4 15
1 25 -8 28 -9 4 -14 0 -14 -11z"/>
<path d="M1901 646 c-24 -64 -24 -68 1 -61 12 4 23 8 23 9 0 0 6 11 13 24 12
22 12 23 -10 12 -20 -10 -19 -8 4 12 l27 23 -25 1 c-18 2 -28 -5 -33 -20z"/>
<path d="M986 624 c3 -38 30 -104 48 -116 6 -4 32 -8 57 -8 38 0 48 -4 59 -25
7 -14 11 -28 8 -31 -4 -3 3 -15 15 -27 20 -20 20 -21 1 -28 -10 -4 -13 -8 -6
-8 7 -1 12 -13 11 -28 l-1 -28 -7 25 c-7 22 -8 20 -12 -17 -3 -24 -2 -43 1
-43 38 0 58 94 27 128 -9 10 -17 32 -17 49 0 36 -13 43 -81 43 -44 0 -49 3
-55 25 -3 14 -10 25 -16 25 -5 0 -6 5 -3 10 3 6 3 10 -2 10 -4 0 -8 18 -7 40
0 25 -4 40 -11 40 -8 0 -11 -13 -9 -36z"/>
<path d="M1462 625 c0 -16 2 -22 5 -12 2 9 2 23 0 30 -3 6 -5 -1 -5 -18z"/>
<path d="M1492 615 c0 -16 2 -22 5 -12 2 9 2 23 0 30 -3 6 -5 -1 -5 -18z"/>
<path d="M1620 581 c0 -5 -8 -12 -17 -14 -13 -3 -11 -5 7 -7 23 -1 23 -2 5
-10 -19 -8 -19 -9 3 -9 12 -1 22 -5 22 -10 0 -4 -73 -9 -162 -10 -89 -1 -170
-7 -180 -12 -13 -7 -18 -21 -18 -50 0 -32 -6 -45 -30 -66 -27 -22 -30 -31 -30
-83 0 -99 21 -106 291 -100 207 5 211 5 230 29 14 17 19 39 19 81 0 53 -3 61
-29 79 -19 14 -27 27 -24 39 2 10 -1 31 -8 47 -7 17 -12 33 -11 36 1 4 -7 5
-16 2 -17 -4 -20 3 -24 55 -1 14 -28 17 -28 3z m58 -83 c7 -7 12 -28 12 -48 0
-29 6 -41 30 -58 26 -20 30 -29 30 -71 0 -33 -6 -56 -19 -72 -19 -24 -20 -24
-240 -24 -252 0 -251 -1 -259 83 -4 47 -3 50 32 77 30 23 36 33 36 66 0 26 6
41 18 48 25 15 345 14 360 -1z"/>
<path d="M1357 463 c-4 -3 -7 -42 -7 -85 l0 -78 139 0 139 0 4 78 c2 42 2 80
0 85 -4 9 -266 10 -275 0z m33 -7 c0 -3 -4 -8 -10 -11 -5 -3 -10 -1 -10 4 0 6
5 11 10 11 6 0 10 -2 10 -4z m230 -71 c0 -35 -3 -66 -7 -68 -5 -3 -8 28 -8 68
0 40 3 71 8 68 4 -2 7 -33 7 -68z m-46 59 c12 -5 16 -20 16 -59 0 -46 -3 -53
-22 -59 -35 -9 -124 -7 -152 4 -22 8 -26 16 -26 53 0 24 5 48 12 55 12 12 143
17 172 6z"/>
<path d="M1450 421 c0 -6 -5 -10 -12 -8 -6 1 -11 -10 -11 -28 0 -18 5 -29 11
-27 7 1 12 -1 12 -6 0 -14 79 -10 84 5 4 8 11 11 18 7 7 -4 10 -4 6 1 -4 4 -2
15 5 23 10 13 9 14 -2 7 -11 -6 -13 -4 -9 7 4 8 1 15 -5 16 -76 12 -97 13 -97
3z m87 -27 c7 -18 -12 -34 -42 -34 -30 0 -49 16 -42 34 4 11 19 16 42 16 23 0
38 -5 42 -16z"/>
<path d="M1899 578 c-1 -2 -3 -13 -4 -25 -3 -27 4 -28 31 -8 19 14 19 14 -1
15 -17 0 -17 2 -5 10 13 8 12 10 -2 10 -10 0 -19 -1 -19 -2z"/>
<path d="M838 553 c-73 -5 -76 -23 -4 -23 39 0 55 4 60 15 3 8 4 14 3 13 -1
-1 -28 -3 -59 -5z"/>
<path d="M1914 525 c-18 -13 -17 -14 16 -14 19 0 29 3 22 6 -6 2 -10 9 -6 14
8 14 -10 11 -32 -6z"/>
<path d="M1850 523 c-23 -8 -40 -34 -40 -64 0 -14 -7 -33 -16 -40 -20 -16 -15
-103 7 -124 9 -9 60 -18 144 -25 72 -6 150 -13 175 -15 25 -2 86 -7 135 -11
50 -3 113 -9 140 -13 28 -3 91 -4 140 -1 l90 5 -105 7 c-58 4 -186 14 -285 22
-99 8 -233 17 -297 21 -69 4 -122 12 -127 19 -17 21 -16 104 1 123 9 10 18 31
20 48 2 22 9 31 28 35 14 3 20 8 15 12 -6 3 -17 3 -25 1z"/>
<path d="M2018 523 c12 -2 32 -2 45 0 12 2 2 4 -23 4 -25 0 -35 -2 -22 -4z"/>
<path d="M1990 500 c-9 -6 -10 -10 -3 -10 6 0 15 5 18 10 8 12 4 12 -15 0z"/>
<path d="M463 493 c9 -2 25 -2 35 0 9 3 1 5 -18 5 -19 0 -27 -2 -17 -5z"/>
<path d="M288 398 c-2 -41 1 -76 7 -80 6 -4 45 -8 88 -8 l77 0 0 36 c0 19 -4
33 -9 30 -5 -3 -15 1 -22 10 -10 13 -10 17 0 24 15 9 7 30 -11 30 -6 0 -20 -8
-31 -17 -19 -17 -19 -17 -16 2 3 12 14 21 27 23 44 6 10 22 -48 22 l-58 0 -4
-72z m76 34 c-2 -9 0 -24 5 -31 8 -13 12 -12 28 5 10 11 14 14 10 8 -5 -7 -3
-22 3 -34 11 -20 10 -21 -9 -10 -12 6 -21 7 -21 1 0 -13 30 -22 51 -16 11 4
19 2 19 -4 0 -6 -18 -11 -40 -11 -34 0 -40 3 -41 23 l-2 22 -4 -22 c-2 -13
-12 -24 -21 -25 -9 0 3 -4 28 -8 l45 -8 -45 2 -45 1 -3 60 c-3 58 -2 61 22 63
18 1 23 -3 20 -16z"/>
<path d="M462 418 c9 -7 30 -21 47 -30 29 -16 31 -21 31 -72 0 -74 -6 -77
-169 -69 -147 7 -157 12 -164 78 l-4 40 -1 -46 c-3 -71 12 -79 161 -86 79 -4
136 -2 155 5 18 6 161 21 319 33 159 11 294 26 301 31 6 6 12 16 12 22 0 6 -6
4 -13 -4 -7 -9 -19 -16 -27 -16 -41 -1 -220 -16 -254 -21 -27 -3 -36 -2 -32 6
5 7 -2 11 -16 11 -18 0 -20 -2 -8 -10 12 -7 8 -10 -15 -10 -16 0 -60 -3 -97
-7 l-68 -6 0 46 0 46 103 4 102 3 -107 2 -107 2 -3 -52 c-2 -44 -6 -53 -22
-53 -14 0 -20 9 -22 35 -2 19 -7 51 -10 70 -4 19 -7 38 -6 42 1 4 -6 7 -16 6
-9 0 -33 3 -52 7 -30 5 -33 5 -18 -7z"/>
<path d="M908 423 c7 -3 16 -2 19 1 4 3 -2 6 -13 5 -11 0 -14 -3 -6 -6z"/>
<path d="M1848 423 c7 -3 16 -2 19 1 4 3 -2 6 -13 5 -11 0 -14 -3 -6 -6z"/>
<path d="M1880 421 c0 -6 -17 -12 -37 -14 l-38 -4 43 -1 c27 -1 41 -6 37 -12
-4 -7 3 -9 20 -6 39 7 44 16 10 16 -37 0 -22 17 20 23 24 3 21 4 -12 6 -24 0
-43 -3 -43 -8z"/>
<path d="M598 413 c7 -3 16 -2 19 1 4 3 -2 6 -13 5 -11 0 -14 -3 -6 -6z"/>
<path d="M1836 377 c-5 -9 -5 -29 0 -45 7 -25 8 -26 11 -4 3 12 3 32 0 45 -3
19 -4 20 -11 4z"/>
<path d="M913 373 c43 -2 110 -2 150 0 40 1 5 3 -78 3 -82 0 -115 -2 -72 -3z"/>
<path d="M1988 373 c34 -2 88 -2 120 0 31 2 3 3 -63 3 -66 0 -92 -1 -57 -3z"/>
<path d="M2170 368 c0 -5 64 -7 143 -6 145 2 128 6 -46 10 -53 2 -97 0 -97 -4z"/>
<path d="M1920 330 c20 -13 43 -13 35 0 -3 6 -16 10 -28 10 -18 0 -19 -2 -7
-10z"/>
</g>
</svg>
